# xmcd
#
# Track frame offsets: 
#        150
#        11419
#        29203
#        43308
#        59504
#        72803
#        85695
#        101518
#        121708
#        138490
#        155550
#        171080
#        180426
#
# Disc length: 2715 seconds
#
# Revision: 2
# Processed by: cddbd v1.5.2PL0 Copyright (c) Steve Scherf et al.
# Submitted via: ExactAudioCopyFreeDBPlugin 1.0
#
DISCID=ab0a990d
DTITLE=Mavis Staples - You Are Not Alone
DYEAR=2010
DGENRE=Soul
TTITLE0=Don't Knock
TTITLE1=You Are Not Alone
TTITLE2=Downward Road
TTITLE3=In Christ There is No East or West
TTITLE4=Creep Along Moses
TTITLE5=Losing You
TTITLE6=I Belong to the Band - Hallelujah
TTITLE7=Last Train
TTITLE8=Only the Lord Knows
TTITLE9=Wrote a Song for Everyone
TTITLE10=We're Gonna Make It
TTITLE11=Wonderful Savior
TTITLE12=Too Close to Heaven
EXTD=YEAR: 2010
EXTT0=
EXTT1=
EXTT2=
EXTT3=
EXTT4=
EXTT5=
EXTT6=
EXTT7=
EXTT8=
EXTT9=
EXTT10=
EXTT11=
EXTT12=
PLAYORDER=
